# xmcd
#
# Track frame offsets:
#	150
#	13010
#	36350
#	58320
#	88020
#	105327
#	121865
#	136330
#	158670
#	178547
#	196382
#	211020
#
# Disc length: 3154 seconds
#
# Revision: 1
# Processed by: cddbd v1.5.1PL0 Copyright (c) Steve Scherf et al.
# Submitted via: audiograbber 1.82.01
#
DISCID=9a0c500c
DTITLE=Stan Webb - Stan The Man  [CD 1)
DYEAR=2002
DGENRE=Blues
TTITLE0=I'm Torn Down
TTITLE1=Revelation
TTITLE2=Don't Want To See You Anymore
TTITLE3=If I Were A Carpenter
TTITLE4=Crying Smiling
TTITLE5=It's Alright
TTITLE6=Prudence´s Party
TTITLE7=Emily
TTITLE8=Stan The Man
TTITLE9=Hold On
TTITLE10=Meeting On A Hill
TTITLE11=I'd Rather Go Blind
EXTD=
EXTT0=
EXTT1=
EXTT2=
EXTT3=
EXTT4=
EXTT5=
EXTT6=
EXTT7=
EXTT8=
EXTT9=
EXTT10=
EXTT11=
PLAYORDER=
